#!OML:ASF H:\Dans Jumps\Project 1\Capture day 1\Session 1\subject.ASF
:FULLY-SPECIFIED
:DEGREES
147
root 0.569718 17.3322 -14.5481 13.3229 -1.16972 -1.3163
lowerback 3.31684 -0.281533 -0.418008
upperback 3.54316 -0.406869 1.99297
thorax 1.79566 -0.238819 2.28801
lowerneck -15.5229 0.340788 -2.03373
upperneck 22.144 0.973171 0.109186
head 9.55238 0.29026 0.501691
rclavicle 3.18055e-015 1.59028e-015
rhumerus -24.4931 -15.9889 -77.4436
rradius 25.5287
rwrist 31.1071
rhand -18.3853 -25.8095
rfingers 7.12502
rthumb 7.8985 -55.642
lclavicle 3.18055e-015 1.59028e-015
lhumerus -23.7005 0.812374 84.1858
lradius 20.5643
lwrist 7.3625
lhand -23.9879 -3.44191
lfingers 7.12502
lthumb 2.48908 26.5233
rfemur -28.8726 -2.08652 21.0118
rtibia 31.4904
rfoot -15.7742 -2.94466
rtoes 7.6746
lfemur -28.8997 10.4455 -21.5314
ltibia 29.8023
lfoot -13.3563 3.54272
ltoes -4.15337
148
root 0.569352 17.3153 -14.5818 13.6461 -1.17271 -1.33985
lowerback 3.61071 -0.281483 -0.412087
upperback 3.58559 -0.405422 2.00365
thorax 1.67508 -0.237616 2.2973
lowerneck -15.6511 0.335419 -2.08219
upperneck 21.7562 0.97445 0.124926
head 9.43996 0.292188 0.514142
rclavicle 1.2921e-015 -8.74653e-015
rhumerus -24.5254 -15.9562 -77.4241
rradius 25.5296
rwrist 31.0636
rhand -18.3701 -25.8302
rfingers 7.12502
rthumb 7.91314 -55.6621
lclavicle 1.2921e-015 -8.74653e-015
lhumerus -23.7801 0.795735 84.0881
lradius 20.5343
lwrist 7.49973
lhand -24.0904 -3.48331
lfingers 7.12502
lthumb 2.39005 26.483
rfemur -29.6205 -2.07838 21.0585
rtibia 31.992
rfoot -15.957 -2.95876
rtoes 7.67011
lfemur -29.6979 10.5083 -21.6062
ltibia 30.3635
lfoot -13.5132 3.54617
ltoes -4.26271
149
root 0.568974 17.2979 -14.6152 13.9707 -1.16969 -1.37383
lowerback 3.90558 -0.281307 -0.396289
upperback 3.63421 -0.403639 2.01992
thorax 1.56043 -0.236189 2.30684
lowerneck -15.765 0.332607 -2.11281
upperneck 21.3433 0.97895 0.120606
head 9.31681 0.295202 0.516887
rclavicle 5.36719e-015 -1.11319e-014
rhumerus -24.5592 -15.9286 -77.3965
rradius 25.5226
rwrist 31.0463
rhand -18.3585 -25.8498
rfingers 7.12502
rthumb 7.92434 -55.6813
lclavicle 5.36719e-015 -1.11319e-014
lhumerus -23.8605 0.786713 83.9957
lradius 20.4966
lwrist 7.62411
lhand -24.232 -3.61832
lfingers 7.12502
lthumb 2.25334 26.3495
rfemur -30.3653 -2.07306 21.1178
rtibia 32.4881
rfoot -16.1449 -2.98203
rtoes 7.63512
lfemur -30.4993 10.5671 -21.6707
ltibia 30.9275
lfoot -13.6694 3.55808
ltoes -4.38011
150
root 0.56873 17.2804 -14.6479 14.2925 -1.16253 -1.41294
lowerback 4.19942 -0.280291 -0.37315
upperback 3.6898 -0.40053 2.03834
thorax 1.45359 -0.234079 2.31446
lowerneck -15.8553 0.334024 -2.11833
upperneck 20.9038 0.987517 0.0923337
head 9.18086 0.299859 0.50752
rclavicle -7.95139e-016 1.07344e-014
rhumerus -24.5931 -15.9153 -77.3614
rradius 25.5041
rwrist 31.0568
rhand -18.3496 -25.8749
rfingers 7.12502
rthumb 7.93288 -55.7061
lclavicle -7.95139e-016 1.07344e-014
lhumerus -23.9449 0.784207 83.9077
lradius 20.4496
lwrist 7.72726
lhand -24.4174 -3.8788
lfingers 7.12502
lthumb 2.07422 26.0909
rfemur -31.1006 -2.07491 21.1841
rtibia 32.977
rfoot -16.3352 -3.00826
rtoes 7.56284
lfemur -31.2941 10.619 -21.7296
ltibia 31.4892
lfoot -13.825 3.58122
ltoes -4.50402
151
root 0.568505 17.2628 -14.6802 14.6159 -1.15544 -1.45797
lowerback 4.49198 -0.277754 -0.345194
upperback 3.75002 -0.395175 2.05997
thorax 1.35229 -0.230867 2.32262
lowerneck -15.9411 0.342864 -2.0967
upperneck 20.4581 1.00533 0.0364116
head 9.04286 0.308057 0.485353
rclavicle -3.57812e-015 -2.10712e-014
rhumerus -24.627 -15.9122 -77.3176
rradius 25.4728
rwrist 31.0954
rhand -18.3326 -25.8942
rfingers 7.12502
rthumb 7.94936 -55.7247
lclavicle -3.57812e-015 -2.10712e-014
lhumerus -24.0261 0.80385 83.8227
lradius 20.3858
lwrist 7.79264
lhand -24.621 -4.22949
lfingers 7.12502
lthumb 1.87762 25.742
rfemur -31.8325 -2.07855 21.2585
rtibia 33.4575
rfoot -16.5275 -3.03787
rtoes 7.44005
lfemur -32.0858 10.664 -21.7822
ltibia 32.0445
lfoot -13.9792 3.62041
ltoes -4.63549
152
root 0.568227 17.2452 -14.7118 14.9433 -1.14813 -1.50711
lowerback 4.77995 -0.273567 -0.315846
upperback 3.81267 -0.387458 2.0845
thorax 1.25611 -0.226545 2.33289
lowerneck -16.0346 0.347964 -2.08588
upperneck 20.0226 1.0189 -0.0116758
head 8.91036 0.314244 0.467329
rclavicle 8.15017e-015 8.74653e-015
rhumerus -24.6596 -15.926 -77.2644
rradius 25.4245
rwrist 31.1614
rhand -18.3056 -25.916
rfingers 7.12502
rthumb 7.97543 -55.7455
lclavicle 8.15017e-015 8.74653e-015
lhumerus -24.0973 0.837556 83.7411
lradius 20.2957
lwrist 7.81494
lhand -24.7852 -4.51587
lfingers 7.12502
lthumb 1.71901 25.457
rfemur -32.5629 -2.08419 21.3397
rtibia 33.93
rfoot -16.7241 -3.0655
rtoes 7.28506
lfemur -32.8752 10.7002 -21.8297
ltibia 32.5902
lfoot -14.1332 3.68044
ltoes -4.80513
153
root 0.568055 17.2276 -14.7427 15.2737 -1.14025 -1.55445
lowerback 5.06227 -0.268705 -0.289167
upperback 3.87778 -0.378812 2.10961
thorax 1.16577 -0.221885 2.34518
lowerneck -16.1343 0.351778 -2.07939
upperneck 19.5971 1.03094 -0.0561942
head 8.783 0.319735 0.451217
rclavicle 1.39149e-015 -3.18055e-015
rhumerus -24.6885 -15.9567 -77.2033
rradius 25.359
rwrist 31.2604
rhand -18.2769 -25.9382
rfingers 7.12502
rthumb 8.00306 -55.7667
lclavicle 1.39149e-015 -3.18055e-015
lhumerus -24.1637 0.894501 83.6608
lradius 20.1857
lwrist 7.7867
lhand -24.9053 -4.73706
lfingers 7.12502
lthumb 1.603 25.2367
rfemur -33.2902 -2.09741 21.421
rtibia 34.3956
rfoot -16.9299 -3.08333
rtoes 7.10534
lfemur -33.6573 10.7257 -21.878
ltibia 33.1244
lfoot -14.294 3.76508
ltoes -5.02062
154
root 0.567855 17.21 -14.7727 15.6082 -1.13687 -1.59898
lowerback 5.34069 -0.261526 -0.269885
upperback 3.94242 -0.367211 2.1355
thorax 1.0772 -0.215926 2.36228
lowerneck -16.2413 0.355931 -2.07139
upperneck 19.1853 1.0437 -0.103502
head 8.66214 0.325295 0.434168
rclavicle 3.8763e-015 -1.74931e-014
rhumerus -24.7182 -16.0004 -77.1343
rradius 25.2804
rwrist 31.3806
rhand -18.2387 -25.9677
rfingers 7.12502
rthumb 8.03992 -55.7948
lclavicle 3.8763e-015 -1.74931e-014
lhumerus -24.2196 0.98078 83.5793
lradius 20.0464
lwrist 7.6881
lhand -24.9386 -4.78783
lfingers 7.12502
lthumb 1.57085 25.1861
rfemur -34.0167 -2.11271 21.5009
rtibia 34.8559
rfoot -17.1487 -3.09283
rtoes 6.88514
lfemur -34.4318 10.7444 -21.9286
ltibia 33.6462
lfoot -14.4645 3.8852
ltoes -5.28821
155
root 0.567667 17.1925 -14.8016 15.9426 -1.13624 -1.63575
lowerback 5.6148 -0.25299 -0.263238
upperback 4.00848 -0.354253 2.16163
thorax 0.992686 -0.209584 2.38662
lowerneck -16.3235 0.367865 -2.02837
upperneck 18.7525 1.06414 -0.183937
head 8.53052 0.333813 0.401005
rclavicle -5.66536e-015 6.75868e-015
rhumerus -24.7486 -16.0569 -77.0574
rradius 25.1901
rwrist 31.5252
rhand -18.204 -25.9942
rfingers 7.12502
rthumb 8.07344 -55.82
lclavicle -5.66536e-015 6.75868e-015
lhumerus -24.2754 1.09344 83.4972
lradius 19.8963
lwrist 7.52034
lhand -24.9103 -4.73027
lfingers 7.12502
lthumb 1.59816 25.2435
rfemur -34.7363 -2.13451 21.5741
rtibia 35.3119
rfoot -17.3846 -3.09061
rtoes 6.64072
lfemur -35.1905 10.7553 -21.9856
ltibia 34.1542
lfoot -14.6444 4.04808
ltoes -5.61325
156
root 0.567441 17.1751 -14.8291 16.2729 -1.13955 -1.66447
lowerback 5.88873 -0.242735 -0.268919
upperback 4.07535 -0.3395 2.18679
thorax 0.909244 -0.202593 2.41678
lowerneck -16.4052 0.3777 -1.99271
upperneck 18.3259 1.08161 -0.257468
head 8.40137 0.341135 0.37121
rclavicle 6.75868e-015 -2.18663e-015
rhumerus -24.7835 -16.1242 -76.9746
rradius 25.098
rwrist 31.6809
rhand -18.1637 -26.0309
rfingers 7.12502
rthumb 8.11232 -55.8552
lclavicle 6.75868e-015 -2.18663e-015
lhumerus -24.3323 1.22479 83.4156
lradius 19.7353
lwrist 7.29765
lhand -24.8534 -4.62341
lfingers 7.12502
lthumb 1.6532 25.3499
rfemur -35.4442 -2.15915 21.6394
rtibia 35.7636
rfoot -17.6396 -3.08358
rtoes 6.35613
lfemur -35.9271 10.7608 -22.0484
ltibia 34.6477
lfoot -14.8364 4.24892
ltoes -5.9637
157
root 0.567126 17.1579 -14.8551 16.6005 -1.14952 -1.6827
lowerback 6.1613 -0.229664 -0.290161
upperback 4.13993 -0.321717 2.20982
thorax 0.824305 -0.194339 2.45329
lowerneck -16.4728 0.386232 -1.96026
upperneck 17.8971 1.09653 -0.327615
head 8.26947 0.347502 0.342864
rclavicle 9.93923e-016 -2.20651e-014
rhumerus -24.8286 -16.2054 -76.8849
rradius 25.0018
rwrist 31.8487
rhand -18.124 -26.062
rfingers 7.12502
rthumb 8.15068 -55.8848
lclavicle 9.93923e-016 -2.20651e-014
lhumerus -24.397 1.36204 83.3379
lradius 19.5682
lwrist 7.04523
lhand -24.7849 -4.49002
lfingers 7.12502
lthumb 1.71929 25.4828
rfemur -36.1421 -2.18451 21.6937
rtibia 36.2101
rfoot -17.9166 -3.08714
rtoes 5.99017
lfemur -36.6439 10.7637 -22.1211
ltibia 35.1263
lfoot -15.043 4.47888
ltoes -6.34001
